<?xml version="1.0" encoding="UTF-8" standalone="no"?>
<!DOCTYPE svg PUBLIC "-//W3C//DTD SVG 1.1//EN" "http://www.w3.org/Graphics/SVG/1.1/DTD/svg11.dtd">
<svg width="100%" height="100%" viewBox="0 0 256 256" version="1.1" xmlns="http://www.w3.org/2000/svg" xmlns:xlink="http://www.w3.org/1999/xlink" xml:space="preserve" xmlns:serif="http://www.serif.com/" style="fill-rule:evenodd;clip-rule:evenodd;stroke-linecap:round;stroke-linejoin:round;stroke-miterlimit:1.5;">
    <g transform="matrix(1.10241,0,0,1.10241,-27.542,-31.4866)">
        <path d="M240.874,74.824C240.874,58.303 227.461,44.889 210.94,44.889L71.246,44.889C54.724,44.889 41.311,58.303 41.311,74.824L41.311,214.518C41.311,231.039 54.724,244.452 71.246,244.452L210.94,244.452C227.461,244.452 240.874,231.039 240.874,214.518L240.874,74.824Z" style="fill:none;stroke:rgb(142,239,151);stroke-width:21.97px;"/>
    </g>
    <g transform="matrix(1.11046,0,0,1.11046,-13.9485,-24.0546)">
        <g transform="matrix(0.511904,0,0,1,92.7679,125.205)">
            <path d="M217.182,80.78C217.182,76.184 209.892,72.453 200.914,72.453L60.981,72.453C52.003,72.453 44.713,76.184 44.713,80.78C44.713,85.376 52.003,89.108 60.981,89.108L200.914,89.108C209.892,89.108 217.182,85.376 217.182,80.78Z" style="fill:rgb(142,239,151);"/>
        </g>
        <g transform="matrix(1,0,0,1,-17.1752,7.32732)">
            <g transform="matrix(0.340504,-0.340504,0.707107,0.707107,-0.676864,162.653)">
                <path d="M217.182,80.78C217.182,76.184 209.433,72.453 199.889,72.453L62.006,72.453C52.462,72.453 44.713,76.184 44.713,80.78C44.713,85.376 52.462,89.108 62.006,89.108L199.889,89.108C209.433,89.108 217.182,85.376 217.182,80.78Z" style="fill:rgb(142,239,151);"/>
            </g>
            <g transform="matrix(0.340504,0.340504,-0.707107,0.707107,113.564,26.2915)">
                <path d="M217.182,80.78C217.182,76.184 209.433,72.453 199.889,72.453L62.006,72.453C52.462,72.453 44.713,76.184 44.713,80.78C44.713,85.376 52.462,89.108 62.006,89.108L199.889,89.108C209.433,89.108 217.182,85.376 217.182,80.78Z" style="fill:rgb(142,239,151);"/>
            </g>
        </g>
    </g>
</svg>
